<svg xmlns="http://www.w3.org/2000/svg" xml:space="preserve" fill-rule="evenodd" stroke-miterlimit="1.5" clip-rule="evenodd" viewBox="0 0 202 175">
  <path fill="none" stroke="#000" stroke-width="22" d="M1 150.844s11.092.162 25.227-2.512c10.962-2.073 22.896-4.77 35.601-12.754 25.942-16.305 40.715-38.407 45.767-67.501.527-3.035.948-6.147 1.265-9.336 1.579-15.883-5.841-30.06-15.776-36.843-11.136-7.604-27.931-8.807-42.655-1.732C28.75 30.58 24.535 50.672 27.49 68.328c1.81 10.819 7.226 20.996 12.529 27.088 22.826 26.223 68.69 64.112 68.69 64.112s23.156-20.874 47.013-41.95c12.193-10.771 23.372-22.884 29.431-36.59 6.519-14.745 7.125-31.197-2.861-45.82-23.039-33.733-58.868-12.943-58.868-12.943" class="animated"></path>
</svg>