
<svg width="201px" height="170px" viewBox="0 0 201 170" version="1.1" xmlns="http://www.w3.org/2000/svg" xmlns:xlink="http://www.w3.org/1999/xlink">
  <g id="Page-1" stroke="none" stroke-width="1" fill="none" fill-rule="evenodd">
    <g id="Desktop-HD" transform="translate(-406.000000, -196.000000)" fill="#000000" fill-rule="nonzero">
      <g id="icon-mask" transform="translate(407.000000, 207.000000)">
        <path d="M117.432821,54.9589231 C118.004957,51.6639841 118.46225,48.2877208 118.806053,44.8290837 C120.691649,25.8620682 112.284511,7.37042398 98.286407,-2.1866105 C83.5159418,-12.272334 62.4833197,-13.3106981 44.664865,-4.74878783 C20.4541582,6.88137496 11.3805897,29.6885984 15.6408983,55.1437621 C17.6538204,67.1756981 23.5276431,79.3734136 30.7221227,87.6383145 C36.0084389,93.7113483 42.6376325,100.58048 50.4108552,108.123257 C51.6439433,109.319789 52.902842,110.530316 54.1863359,111.753993 C45.1422792,117.297781 36.8628452,119.936609 23.1830407,122.523567 C17.7350719,123.554191 12.3643968,124.212193 7.29598833,124.566998 C5.69781006,124.678875 4.2180725,124.753932 2.87528061,124.798451 L1.76389296,124.829186 L0.48301963,124.846008 L0.160639197,124.845173 L-0.160639197,146.842827 L0.470448372,146.846006 L1.57130533,146.836476 C1.97918084,146.830248 2.42742753,146.82075 2.9143894,146.807328 C4.70693652,146.75792 6.68810899,146.66339 8.83229945,146.51329 C14.7156362,146.101437 20.9288116,145.340214 27.2716687,144.140299 C43.8146556,141.011891 54.5250334,137.530539 66.680836,129.891663 C67.7460776,129.22214 68.7948579,128.542994 69.8272105,127.854186 L70.8540835,127.162159 C75.4975608,131.340146 80.2304926,135.514999 84.9778232,139.633199 L87.827349,142.096892 L91.1618463,144.959053 C92.7849,146.346595 94.3393608,147.667183 95.8149209,148.913408 L98.1969756,150.918272 L100.703156,153.008457 L108.022487,159.055076 L122.592916,145.938875 L129.606541,139.651762 L134.46152,135.308517 C141.74572,128.797487 149.022395,122.31782 156.084765,116.059842 L162.004831,110.821808 C177.328635,97.2851322 188.004293,84.4819661 194.213776,70.435559 C202.744123,51.1411952 202.015071,31.0083734 190.375938,13.9646079 C183.480852,3.86903383 174.99331,-3.00164217 165.323178,-6.75879964 C152.215677,-11.8514853 138.663424,-10.8618141 125.893747,-6.30315943 C123.57557,-5.47559183 121.463358,-4.58438865 119.58254,-3.68129942 L119.009206,-3.4022298 L118.430479,-3.11212554 C117.791492,-2.78663736 117.279908,-2.50782721 116.903277,-2.28928493 L127.944723,16.7392849 L128.091366,16.6612801 C128.36508,16.5154823 128.704541,16.3433505 129.105166,16.1509876 C130.317569,15.5688429 131.725461,14.9748122 133.29035,14.4161615 C141.524448,11.4766658 149.930423,10.8628085 157.355714,13.7477731 C162.81711,15.8697012 167.77879,19.886187 172.208419,26.371914 C179.271873,36.7152843 179.710659,48.8323838 174.092398,61.5400471 C169.483374,71.9660725 160.90454,82.3404852 148.127902,93.7232086 L141.096901,99.9463394 L135.843782,104.607632 C129.678412,110.084791 123.396838,115.687017 117.128822,121.294825 L109.856803,127.808874 L107.468674,129.951725 L104.51053,127.426264 L102.188988,125.431259 C98.394808,122.161617 94.6010355,118.848789 90.849778,115.523308 L88.0449644,113.027301 C103.691198,97.3944149 113.409063,78.1313718 117.432821,54.9589231 Z M65.7314084,92.3346328 L64.2239805,90.8660349 L62.8017449,89.4691632 C56.7060771,83.4575799 51.4901532,77.9891835 47.315995,73.1938207 C42.7511505,67.9498017 38.6718742,59.4786826 37.3392199,51.5129443 C34.5705826,34.9704532 39.7168751,22.0347881 54.1920451,15.0813115 C65.1171509,9.83171066 77.7898974,10.4573542 85.8810189,15.9822185 C93.1666265,20.9563782 98.0114986,31.6127575 96.9139582,42.6528051 C96.6223711,45.586153 96.23677,48.4331058 95.7571731,51.1951105 C92.5091951,69.8999151 84.9083062,85.1135486 72.3734507,97.5896315 L71.8088892,98.1464351 C69.7153376,96.1715004 67.6875471,94.2327795 65.7314084,92.3346328 Z" id="Path"></path>
      </g>
    </g>
  </g>
</svg>